# xmcd
#
# Track frame offsets:
# 150
# 16162
# 37170
# 58942
# 83122
# 101275
# 118027
# 145442
# 170922
# 186952
#
# Disc length: 2701 seconds
#
# Revision: 1
# Processed by: cddbd v1.5.2PL0 Copyright (c) Steve Scherf et al.
# Submitted via: CedeCatalogueitor 2.6.0.6 http://personales.ya.com/cdcatalogueitor
#
DISCID=8d0a8b0a
DTITLE=Smokin' Joe Kubek and Bnois King - Take Your Best Shot
DYEAR=1998
DGENRE=
TTITLE0=Roll Of The Dice
TTITLE1=Worst Heartache
TTITLE2=Take Your Best Shot
TTITLE3=Walk On
TTITLE4=Spanish Trace
TTITLE5=Damn Traffic
TTITLE6=You Said "I Love You" First
TTITLE7=One Night Affair
TTITLE8=So Blind
TTITLE9=Never Enough
EXTD=
EXTT0=
EXTT1=
EXTT2=
EXTT3=
EXTT4=
EXTT5=
EXTT6=
EXTT7=
EXTT8=
EXTT9=
PLAYORDER=
